<svg xmlns="http://www.w3.org/2000/svg" xmlns:xlink="http://www.w3.org/1999/xlink" version="1.1" viewBox="0 0 496 512" style="enable-background:new 0 0 496 512;" xml:space="preserve">
<path d="M453.6,114.5c-6.2,65.6-33.3,224.9-47,298.4c-5.8,31.1-17.3,41.5-28.4,42.6c-24.1,2.2-42.4-15.9-65.8-31.2  c-36.5-23.9-57.2-38.9-92.6-62.2c-41-27-14.4-41.8,8.9-66.1c6.1-6.3,112.3-103,114.4-111.7c0.3-1.1,0.5-5.2-1.9-7.3  c-2.4-2.1-6-1.4-8.6-0.8c-3.7,0.8-62,39.4-175.1,115.7c-16.6,11.4-31.6,16.9-45,16.6c-14.8-0.3-43.3-8.4-64.5-15.3  c-26-8.4-46.7-12.9-44.9-27.3c0.9-7.5,11.2-15.1,30.9-22.9c121-52.7,201.7-87.5,242.1-104.3c115.3-47.9,139.2-56.3,154.8-56.6  c3.4-0.1,11.1,0.8,16.1,4.8c3.3,2.9,5.4,6.9,5.9,11.2C453.7,103.6,454,109.1,453.6,114.5z"/>
</svg>